<?xml version="1.0" encoding="UTF-8" standalone="no"?>
<svg
   height="71.754219mm"
   viewBox="0.374 0.272 4.9788162 5.050109"
   width="70.998802mm"
   version="1.1"
   id="svg3"
   sodipodi:docname="bevy-engine-seeklogo.svg"
   xml:space="preserve"
   inkscape:export-filename="bevy_logo\bird_dim.svg"
   inkscape:export-xdpi="96"
   inkscape:export-ydpi="96"
   xmlns:inkscape="http://www.inkscape.org/namespaces/inkscape"
   xmlns:sodipodi="http://sodipodi.sourceforge.net/DTD/sodipodi-0.dtd"
   xmlns="http://www.w3.org/2000/svg"
   xmlns:svg="http://www.w3.org/2000/svg"><defs
     id="defs3" /><sodipodi:namedview
     id="namedview3"
     pagecolor="#505050"
     bordercolor="#eeeeee"
     borderopacity="1"
     inkscape:showpageshadow="0"
     inkscape:pageopacity="0"
     inkscape:pagecheckerboard="0"
     inkscape:deskcolor="#505050"
     showguides="true"
     inkscape:document-units="mm"><sodipodi:guide
       position="2.5337978,2.5250545"
       orientation="0,-1"
       id="guide5"
       inkscape:locked="false" /></sodipodi:namedview><circle
     style="display:none;fill:#282828;fill-opacity:1;stroke:none;stroke-width:0.0774187;stroke-linecap:round;stroke-miterlimit:4;stroke-dasharray:none;stroke-opacity:1;paint-order:markers stroke fill;stop-color:#000000"
     id="path2611-1-3"
     cx="3.5032594"
     cy="3.5988624"
     r="0.21414781"
     inkscape:label="cock_curtain" /><g
     id="g6"
     inkscape:label="bird_dark"
     style="display:inline"><circle
       style="display:inline;fill:#282828;fill-opacity:1;stroke:none;stroke-width:0.0774187;stroke-linecap:round;stroke-miterlimit:4;stroke-dasharray:none;stroke-opacity:1;paint-order:markers stroke fill;stop-color:#000000"
       id="path2611-71-1"
       cx="4.4366622"
       cy="3.0289094"
       r="0.21414781"
       inkscape:label="bird_dark_eye" /><path
       inkscape:connector-curvature="0"
       id="path819-1-94-5-3-1-9-6-4-90-0-8-9-5-8-6-1-6-2-5"
       style="display:inline;fill:#787878;fill-opacity:1;stroke:#282828;stroke-width:0.0774187;stroke-linecap:butt;stroke-linejoin:miter;stroke-miterlimit:4;stroke-dasharray:none;stroke-opacity:1;paint-order:markers stroke fill"
       d="m 4.2839662,2.6470262 v 0 c -2.98e-4,6e-6 -5.77e-4,0 -8.75e-4,0 -0.01826,0.05712 -0.03238,0.119173 -0.03506,0.189853 -0.0051,0.132702 0.0084,0.213475 -0.0068,0.299436 -0.01527,0.08596 -0.06043,0.170592 -0.175305,0.303291 -0.136727,0.157948 -0.353417,0.280167 -0.603709,0.321477 -0.04658,0.02974 -0.09575,0.057 -0.147481,0.08125 0.194815,0.07334 0.398548,0.07734 0.560064,0.02433 0.284524,-0.09337 0.262493,-0.160434 0.389998,-0.35581 0.04017,-0.06155 0.08654,-0.10853 0.133114,-0.147117 0.132675,0.05785 0.263367,0.095 0.344791,0.0858 0.04378,-0.101497 -0.0011,-0.219198 -0.07558,-0.33046 0.06112,-0.189865 -0.03163,-0.37999 -0.237062,-0.447208 -0.05358,-0.01753 -0.101735,-0.02578 -0.146063,-0.02491 z m 0.154101,0.278778 a 0.07759374,0.07905778 48.679502 0 1 0.05954,0.026 0.07759374,0.07905778 48.679502 0 1 -0.0081,0.110493 0.07759374,0.07905778 48.679502 0 1 -0.110601,-0.0061 0.07759374,0.07905778 48.679502 0 1 0.0081,-0.110493 0.07759374,0.07905778 48.679502 0 1 0.05106,-0.01993 z m -1.273248,0.845025 c 0.0024,0.0014 0.0048,0.0026 0.0072,0.004 0.0024,-9.12e-4 0.0049,-0.0019 0.0074,-0.0028 -0.0048,-4.28e-4 -0.0097,-7.26e-4 -0.01451,-0.0012 z"
       inkscape:label="bird_dark" /></g><g
     id="g7"
     inkscape:label="bird_dim"
     style="display:none"><circle
       style="display:inline;fill:#282828;fill-opacity:1;stroke:none;stroke-width:0.0774187;stroke-linecap:round;stroke-miterlimit:4;stroke-dasharray:none;stroke-opacity:1;paint-order:markers stroke fill;stop-color:#000000"
       id="path2611-7-4"
       cx="4.108458"
       cy="2.2202022"
       r="0.21414781"
       inkscape:label="bird_dim_eye" /><path
       inkscape:connector-curvature="0"
       id="path3008-7-0-9-1"
       style="color:#000000;font-style:normal;font-variant:normal;font-weight:normal;font-stretch:normal;font-size:medium;line-height:normal;font-family:sans-serif;font-variant-ligatures:normal;font-variant-position:normal;font-variant-caps:normal;font-variant-numeric:normal;font-variant-alternates:normal;font-variant-east-asian:normal;font-feature-settings:normal;font-variation-settings:normal;text-indent:0;text-align:start;text-decoration:none;text-decoration-line:none;text-decoration-style:solid;text-decoration-color:#000000;letter-spacing:normal;word-spacing:normal;text-transform:none;writing-mode:lr-tb;direction:ltr;text-orientation:mixed;dominant-baseline:auto;baseline-shift:baseline;text-anchor:start;white-space:normal;shape-padding:0;shape-margin:0;inline-size:0;clip-rule:nonzero;display:inline;overflow:visible;visibility:visible;isolation:auto;mix-blend-mode:normal;color-interpolation:sRGB;color-interpolation-filters:linearRGB;solid-color:#000000;solid-opacity:1;fill:#b2b2b2;fill-opacity:1;fill-rule:nonzero;stroke:#282828;stroke-width:0.0774187;stroke-linecap:butt;stroke-linejoin:miter;stroke-miterlimit:4;stroke-dasharray:none;stroke-dashoffset:0;stroke-opacity:1;paint-order:markers stroke fill;color-rendering:auto;image-rendering:auto;shape-rendering:auto;text-rendering:auto;enable-background:accumulate;stop-color:#000000"
       d="m 4.0020982,1.9204582 c -0.03558,-7.26e-4 -0.07284,0.003 -0.111329,0.01178 -0.0026,5.96e-4 -0.0049,0.0013 -0.0074,0.0019 -0.04235,0.04186 -0.08962,0.08388 -0.140208,0.125077 0.01629,0.07187 0.04047,0.146792 0.08325,0.223494 0.07425,0.133135 0.135457,0.204199 0.171376,0.296563 0.03592,0.09236 0.04216,0.201011 0.0088,0.398945 -0.04131,0.245393 -0.190692,0.505246 -0.427532,0.69707 0.183826,-0.05362 0.340524,-0.152538 0.444263,-0.272375 0.111975,-0.129353 0.149328,-0.202532 0.162428,-0.27627 0.0131,-0.07374 8.2e-4,-0.154553 0.006,-0.291687 0.0034,-0.08835 0.02218,-0.165654 0.04612,-0.233608 l 0.0057,-0.01629 0.01717,-0.0023 c 0.153226,-0.01987 0.291714,-0.05897 0.363301,-0.105182 -0.02299,-0.10339 -0.12068,-0.183614 -0.250044,-0.24459 l -0.01233,-0.0058 -0.0031,-0.01328 c -0.04092,-0.176126 -0.178481,-0.28975 -0.356465,-0.293447 z m 0.08907,0.217604 a 0.08981007,0.09150461 17.729059 0 1 0.02695,0.0042 0.08981007,0.09150461 17.729059 0 1 0.05768,0.114493 0.08981007,0.09150461 17.729059 0 1 -0.113404,0.05983 0.08981007,0.09150461 17.729059 0 1 -0.05768,-0.114493 0.08981007,0.09150461 17.729059 0 1 0.08645,-0.06401 z"
       inkscape:label="bird_dim" /></g><g
     id="g5"
     inkscape:label="bird_light"
     style="display:none"><circle
       style="display:inline;fill:#282828;fill-opacity:1;stroke:none;stroke-width:0.0774096;stroke-linecap:round;stroke-miterlimit:4;stroke-dasharray:none;stroke-opacity:1;paint-order:markers stroke fill;stop-color:#000000"
       id="path2611-4"
       cx="3.3183725"
       cy="1.767964"
       r="0.21414781"
       inkscape:label="bird_light_eye" /><path
       inkscape:connector-curvature="0"
       id="path3031-2-2-9-7"
       style="color:#000000;font-style:normal;font-variant:normal;font-weight:normal;font-stretch:normal;font-size:medium;line-height:normal;font-family:sans-serif;font-variant-ligatures:normal;font-variant-position:normal;font-variant-caps:normal;font-variant-numeric:normal;font-variant-alternates:normal;font-variant-east-asian:normal;font-feature-settings:normal;font-variation-settings:normal;text-indent:0;text-align:start;text-decoration:none;text-decoration-line:none;text-decoration-style:solid;text-decoration-color:#000000;letter-spacing:normal;word-spacing:normal;text-transform:none;writing-mode:lr-tb;direction:ltr;text-orientation:mixed;dominant-baseline:auto;baseline-shift:baseline;text-anchor:start;white-space:normal;shape-padding:0;shape-margin:0;inline-size:0;clip-rule:nonzero;display:inline;overflow:visible;visibility:visible;isolation:auto;mix-blend-mode:normal;color-interpolation:sRGB;color-interpolation-filters:linearRGB;solid-color:#000000;solid-opacity:1;fill:#ececec;fill-opacity:1;fill-rule:nonzero;stroke:#282828;stroke-width:0.0774187;stroke-linecap:butt;stroke-linejoin:miter;stroke-miterlimit:4;stroke-dasharray:none;stroke-dashoffset:0;stroke-opacity:1;paint-order:markers stroke fill;color-rendering:auto;image-rendering:auto;shape-rendering:auto;text-rendering:auto;enable-background:accumulate;stop-color:#000000"
       d="m 3.2619282,1.4662676 c -0.111224,-6.518e-4 -0.225281,0.043724 -0.323294,0.1388976 -0.128729,0.125001 -0.168715,0.237528 -0.146136,0.377923 l 0.0062,0.03852 -0.03848,-0.0063 c -0.2828161,-0.04582 -0.6328454,-0.02267 -1.0310933,0.138428 0.11707,0.05018 0.3319459,0.133937 0.5703949,0.248445 l 0.075613,0.03633 -0.082196,0.01666 c -0.314866,0.06382 -0.6884925,0.248179 -1.029751,0.650518 0.1526613,-0.01187 0.4646654,-0.04858 0.7900714,-0.04808 0.180886,2.8e-4 0.359152,0.01279 0.5043815,0.05045 0.1452315,0.03765 0.2772265,0.12383 0.2958235,0.186972 0.0186,0.06314 0.008,0.09639 -0.01028,0.145779 -0.01832,0.04939 -0.07467,0.124423 -0.152609,0.173958 -0.077941,0.04954 -0.176832,0.09283 -0.2795782,0.129623 -0.2054926,0.07359 -0.4241952,0.120618 -0.5207479,0.129588 -0.020523,0.0019 -0.028716,0.0093 -0.036625,0.02364 -0.00791,0.01436 -0.012272,0.03691 -0.012912,0.06052 -8.566e-4,0.03152 0.00404,0.04797 0.01294,0.06045 0.0089,0.01248 0.022798,0.01747 0.03712,0.01844 0.606731,0.04106 1.0603871,-0.111557 1.3898731,-0.242297 0.378964,-0.17376 0.618485,-0.516892 0.670484,-0.825823 0.03259,-0.193571 0.0256,-0.288437 -0.0058,-0.36923 -0.03142,-0.08079 -0.09166,-0.152537 -0.168067,-0.289543 -0.0491,-0.08804 -0.07649,-0.174428 -0.09347,-0.254882 l -0.0036,-0.01695 0.01353,-0.01084 c 0.140412,-0.11256 0.254759,-0.235459 0.296273,-0.324931 -0.08518,-0.09059 -0.232373,-0.109737 -0.397055,-0.09213 l -0.01353,0.0014 -0.0095,-0.0097 c -0.08775,-0.0894 -0.196671,-0.1352243 -0.307909,-0.1358853 z m 0.04932,0.2091646 c 0.04829,-7.63e-4 0.09089,0.03271 0.102456,0.08049 0.01361,0.05627 -0.02013,0.112707 -0.07536,0.126059 -0.05522,0.01336 -0.111031,-0.02142 -0.124641,-0.07769 -0.01361,-0.05627 0.02013,-0.112707 0.07536,-0.126059 0.0073,-0.0017 0.01471,-0.0027 0.02219,-0.0028 z"
       sodipodi:nodetypes="cccccccccccczzzcscczscccsccccccccccccccc"
       inkscape:label="bird_light" /></g><g
     aria-label="BEVY"
     transform="matrix(0.12026933,0,0,0.1269604,-4.7998985,-22.372909)"
     style="font-style:normal;font-weight:normal;font-size:10.3007px;line-height:1.25;font-family:sans-serif;letter-spacing:0px;word-spacing:0px;display:none;fill:#282828;fill-opacity:1;stroke:#ffffff;stroke-width:0.626519;stroke-miterlimit:4;stroke-dasharray:none;stroke-opacity:1;paint-order:markers stroke fill"
     id="text1778-3-6-3-9-3-6-4-0-9-5-4-6-0"
     inkscape:export-filename="/home/carter/code/bevy/assets/bevy_logo_dark.png"
     inkscape:export-xdpi="81.422768"
     inkscape:export-ydpi="81.422768"
     inkscape:label="bevy_text"><path
       d="m 87.399725,202.26207 q 0.344867,0.0985 0.886803,0.1478 0.541936,0.0247 1.034604,0.0247 0.985338,0 1.625808,-0.39414 0.665102,-0.41877 0.665102,-1.28094 0,-0.8129 -0.541936,-1.15776 -0.541936,-0.34488 -1.650441,-0.34488 h -2.01994 z m 0,-6.01056 h 1.79824 q 1.059239,0 1.527274,-0.39413 0.492668,-0.39414 0.492668,-1.15777 0,-0.6651 -0.56657,-1.05925 -0.541934,-0.39413 -1.650439,-0.39413 -0.369502,0 -0.86217,0.0247 -0.468036,0.0246 -0.739003,0.0739 z m 1.601173,9.48388 q -0.418769,0 -0.985337,-0.0247 -0.56657,-0.0246 -1.182405,-0.0985 -0.591203,-0.0739 -1.182406,-0.19708 -0.591202,-0.0985 -1.083871,-0.29559 -1.354839,-0.5173 -1.354839,-1.79824 v -11.50381 q 0,-0.51731 0.270969,-0.78828 0.2956,-0.2956 0.788269,-0.46804 0.837536,-0.29559 2.093842,-0.41877 1.256306,-0.1478 2.586512,-0.1478 3.153079,0 4.852786,1.05924 1.699706,1.05923 1.699706,3.27625 0,1.10851 -0.640469,1.92141 -0.640469,0.78827 -1.72434,1.15777 1.231672,0.34487 2.044575,1.25631 0.837537,0.91143 0.837537,2.29091 0,2.4387 -1.822875,3.62111 -1.79824,1.15778 -5.197654,1.15778 z"
       style="font-style:normal;font-variant:normal;font-weight:normal;font-stretch:normal;font-size:21.9748px;font-family:'Baloo Bhaijaan';-inkscape-font-specification:'Baloo Bhaijaan, Normal';font-variant-ligatures:normal;font-variant-caps:normal;font-variant-numeric:normal;font-feature-settings:normal;text-align:start;writing-mode:lr-tb;text-anchor:start;fill:#ececec;fill-opacity:1;stroke:none;stroke-width:0.626519;stroke-miterlimit:4;stroke-dasharray:none;stroke-opacity:1;paint-order:markers stroke fill"
       id="path1940-83-0-6-3-1-1-8-3-1-6-8-3-4"
       inkscape:connector-curvature="0"
       inkscape:label="b" /><path
       d="m 96.48021,192.7043 q 0,-1.05924 0.615839,-1.67508 0.615835,-0.61582 1.675075,-0.61582 h 8.129006 q 0.17244,0.27096 0.29561,0.71435 0.1478,0.44341 0.1478,0.93609 0,0.93606 -0.41877,1.33019 -0.39413,0.39414 -1.05924,0.39414 h -5.19763 v 2.29091 h 5.5425 q 0.17243,0.27097 0.29561,0.71437 0.1478,0.41877 0.1478,0.91144 0,0.93607 -0.39414,1.3302 -0.39414,0.39413 -1.05925,0.39413 h -4.53252 v 2.58653 h 6.33077 q 0.17244,0.27095 0.2956,0.71435 0.1478,0.44341 0.1478,0.93608 0,0.93607 -0.41876,1.35484 -0.39415,0.39413 -1.05924,0.39413 h -7.192946 q -1.05924,0 -1.675075,-0.61583 -0.615839,-0.61584 -0.615839,-1.67508 z"
       style="font-style:normal;font-variant:normal;font-weight:normal;font-stretch:normal;font-size:21.9748px;font-family:'Baloo Bhaijaan';-inkscape-font-specification:'Baloo Bhaijaan, Normal';font-variant-ligatures:normal;font-variant-caps:normal;font-variant-numeric:normal;font-feature-settings:normal;text-align:start;writing-mode:lr-tb;text-anchor:start;fill:#ececec;fill-opacity:1;stroke:none;stroke-width:0.626519;stroke-miterlimit:4;stroke-dasharray:none;stroke-opacity:1;paint-order:markers stroke fill"
       id="path1942-3-4-06-1-4-5-1-0-0-9-7-8-9"
       inkscape:connector-curvature="0"
       inkscape:label="e" /><path
       d="m 117.84176,204.84858 q -0.34487,0.2956 -1.08387,0.5173 -0.71437,0.22171 -1.57654,0.22171 -1.03461,0 -1.77361,-0.29561 -0.739,-0.32023 -1.00997,-0.86217 -0.27097,-0.56657 -0.66509,-1.45337 -0.39414,-0.91144 -0.83755,-2.01994 -0.41877,-1.10851 -0.8868,-2.34018 -0.4434,-1.2563 -0.86217,-2.53724 -0.41877,-1.28094 -0.78827,-2.51261 -0.3695,-1.23167 -0.64047,-2.31554 0.34487,-0.34487 0.98534,-0.61584 0.66511,-0.2956 1.40411,-0.2956 0.91144,0 1.47801,0.39414 0.59119,0.3695 0.86215,1.4041 0.66511,2.41408 1.33022,4.63109 0.68973,2.19237 1.42873,4.58182 h 0.1478 q 0.66511,-2.31555 1.35485,-5.04985 0.71437,-2.73432 1.35483,-5.444 0.44341,-0.2217 0.93607,-0.3695 0.51731,-0.1478 1.15777,-0.1478 0.91144,0 1.55191,0.41877 0.64047,0.39413 0.64047,1.3302 0,0.54195 -0.27097,1.57655 -0.24634,1.0346 -0.6651,2.34017 -0.39413,1.28094 -0.91143,2.68504 -0.49268,1.4041 -1.00997,2.66042 -0.49268,1.23168 -0.93608,2.19237 -0.4434,0.93607 -0.71437,1.30557 z"
       style="font-style:normal;font-variant:normal;font-weight:normal;font-stretch:normal;font-size:21.9748px;font-family:'Baloo Bhaijaan';-inkscape-font-specification:'Baloo Bhaijaan, Normal';font-variant-ligatures:normal;font-variant-caps:normal;font-variant-numeric:normal;font-feature-settings:normal;text-align:start;writing-mode:lr-tb;text-anchor:start;fill:#ececec;fill-opacity:1;stroke:none;stroke-width:0.626519;stroke-miterlimit:4;stroke-dasharray:none;stroke-opacity:1;paint-order:markers stroke fill"
       id="path1944-3-1-2-9-9-5-0-9-7-3-1-5-3"
       inkscape:connector-curvature="0"
       inkscape:label="v" /><path
       d="m 131.98507,205.24272 q -0.27096,0.0739 -0.83753,0.1478 -0.56657,0.0739 -1.10851,0.0739 -1.13314,0 -1.69971,-0.36951 -0.56657,-0.39412 -0.56657,-1.6258 v -3.32552 q -0.61583,-0.91143 -1.3302,-2.01993 -0.71437,-1.10851 -1.4041,-2.26629 -0.68974,-1.15776 -1.28094,-2.26627 -0.5912,-1.13314 -0.96071,-2.0692 0.32024,-0.44342 0.86218,-0.81291 0.56657,-0.36951 1.37947,-0.36951 0.9607,0 1.5519,0.39414 0.61583,0.39413 1.15777,1.478 l 2.04458,4.11379 h 0.1478 q 0.34486,-0.76364 0.5912,-1.37947 0.27097,-0.64047 0.51731,-1.25631 0.24633,-0.64046 0.5173,-1.30557 0.27096,-0.68973 0.61583,-1.57654 0.4434,-0.2217 0.98534,-0.34487 0.54194,-0.12317 1.0346,-0.12317 0.86218,0 1.45337,0.46804 0.61584,0.44341 0.61584,1.35484 0,0.2956 -0.12317,0.71437 -0.12317,0.41877 -0.56656,1.28093 -0.44341,0.83754 -1.30558,2.29092 -0.83753,1.45337 -2.29091,3.79355 z"
       style="font-style:normal;font-variant:normal;font-weight:normal;font-stretch:normal;font-size:21.9748px;font-family:'Baloo Bhaijaan';-inkscape-font-specification:'Baloo Bhaijaan, Normal';font-variant-ligatures:normal;font-variant-caps:normal;font-variant-numeric:normal;font-feature-settings:normal;text-align:start;writing-mode:lr-tb;text-anchor:start;fill:#ececec;fill-opacity:1;stroke:none;stroke-width:0.626519;stroke-miterlimit:4;stroke-dasharray:none;stroke-opacity:1;paint-order:markers stroke fill"
       id="path1946-80-0-6-4-2-4-3-2-5-7-7-6-9"
       inkscape:connector-curvature="0"
       inkscape:label="y" /></g><rect
     style="display:none;fill:#ececec;fill-opacity:0.263578;stroke:none;stroke-width:0.0774098;stroke-linecap:round;stroke-linejoin:round;stroke-miterlimit:5;stroke-dasharray:none;stroke-opacity:1"
     id="rect5"
     width="4.9969425"
     height="5.0501089"
     x="0.36493707"
     y="0.27200001" /></svg>
